<svg data-v-423bf9ae="" xmlns="http://www.w3.org/2000/svg" viewBox="0 0 282.10430980506305 60" class="font"><!----><!----><!----><g data-v-423bf9ae="" id="ac08aa7b-0932-42ba-ac17-c7d862741942" fill="white" transform="matrix(5.489478346271195,0,0,5.489478346271195,-6.916743263884456,-7.6852691962724435)"><path d="M4.76 4.58L4.76 4.58Q5.78 4.58 6.59 5.00L6.59 5.00L6.59 5.00Q7.39 5.42 7.85 6.22L7.85 6.22L7.85 6.22Q8.30 7.03 8.30 8.15L8.30 8.15L8.30 11.91L8.30 11.91Q8.30 12.10 8.18 12.21L8.18 12.21L8.18 12.21Q8.06 12.33 7.88 12.33L7.88 12.33L7.88 12.33Q7.70 12.33 7.58 12.21L7.58 12.21L7.58 12.21Q7.46 12.10 7.46 11.91L7.46 11.91L7.46 8.15L7.46 8.15Q7.46 6.82 6.71 6.12L6.71 6.12L6.71 6.12Q5.96 5.42 4.76 5.42L4.76 5.42L4.76 5.42Q4.02 5.42 3.41 5.70L3.41 5.70L3.41 5.70Q2.80 5.99 2.45 6.50L2.45 6.50L2.45 6.50Q2.10 7.01 2.10 7.63L2.10 7.63L2.10 11.91L2.10 11.91Q2.10 12.10 1.99 12.21L1.99 12.21L1.99 12.21Q1.88 12.33 1.68 12.33L1.68 12.33L1.68 12.33Q1.50 12.33 1.38 12.21L1.38 12.21L1.38 12.21Q1.26 12.10 1.26 11.91L1.26 11.91L1.26 1.82L1.26 1.82Q1.26 1.62 1.38 1.51L1.38 1.51L1.38 1.51Q1.50 1.40 1.68 1.40L1.68 1.40L1.68 1.40Q1.88 1.40 1.99 1.51L1.99 1.51L1.99 1.51Q2.10 1.62 2.10 1.82L2.10 1.82L2.10 5.82L2.10 5.82Q2.58 5.24 3.26 4.91L3.26 4.91L3.26 4.91Q3.95 4.58 4.76 4.58L4.76 4.58ZM10.96 5.10L10.96 5.10Q10.96 4.90 11.08 4.79L11.08 4.79L11.08 4.79Q11.20 4.68 11.38 4.68L11.38 4.68L11.38 4.68Q11.58 4.68 11.69 4.79L11.69 4.79L11.69 4.79Q11.80 4.90 11.80 5.10L11.80 5.10L11.80 11.91L11.80 11.91Q11.80 12.10 11.69 12.21L11.69 12.21L11.69 12.21Q11.58 12.33 11.38 12.33L11.38 12.33L11.38 12.33Q11.20 12.33 11.08 12.21L11.08 12.21L11.08 12.21Q10.96 12.10 10.96 11.91L10.96 11.91L10.96 5.10ZM11.38 1.76L11.38 1.76Q11.65 1.76 11.84 1.93L11.84 1.93L11.84 1.93Q12.03 2.10 12.03 2.41L12.03 2.41L12.03 2.41Q12.03 2.69 11.84 2.88L11.84 2.88L11.84 2.88Q11.65 3.07 11.37 3.07L11.37 3.07L11.37 3.07Q11.09 3.07 10.91 2.88L10.91 2.88L10.91 2.88Q10.72 2.69 10.72 2.41L10.72 2.41L10.72 2.41Q10.72 2.10 10.92 1.93L10.92 1.93L10.92 1.93Q11.12 1.76 11.38 1.76L11.38 1.76ZM18.10 4.58L18.10 4.58Q19.12 4.58 19.93 5.00L19.93 5.00L19.93 5.00Q20.73 5.42 21.19 6.22L21.19 6.22L21.19 6.22Q21.64 7.03 21.64 8.15L21.64 8.15L21.64 11.91L21.64 11.91Q21.64 12.10 21.52 12.21L21.52 12.21L21.52 12.21Q21.41 12.33 21.22 12.33L21.22 12.33L21.22 12.33Q21.04 12.33 20.92 12.21L20.92 12.21L20.92 12.21Q20.80 12.10 20.80 11.91L20.80 11.91L20.80 8.15L20.80 8.15Q20.80 6.82 20.05 6.12L20.05 6.12L20.05 6.12Q19.31 5.42 18.10 5.42L18.10 5.42L18.10 5.42Q17.36 5.42 16.75 5.70L16.75 5.70L16.75 5.70Q16.14 5.99 15.79 6.50L15.79 6.50L15.79 6.50Q15.44 7.01 15.44 7.63L15.44 7.63L15.44 11.91L15.44 11.91Q15.44 12.10 15.33 12.21L15.33 12.21L15.33 12.21Q15.22 12.33 15.02 12.33L15.02 12.33L15.02 12.33Q14.84 12.33 14.72 12.21L14.72 12.21L14.72 12.21Q14.60 12.10 14.60 11.91L14.60 11.91L14.60 5.10L14.60 5.10Q14.60 4.90 14.72 4.79L14.72 4.79L14.72 4.79Q14.84 4.68 15.02 4.68L15.02 4.68L15.02 4.68Q15.22 4.68 15.33 4.79L15.33 4.79L15.33 4.79Q15.44 4.90 15.44 5.10L15.44 5.10L15.44 5.82L15.44 5.82Q15.92 5.24 16.60 4.91L16.60 4.91L16.60 4.91Q17.29 4.58 18.10 4.58L18.10 4.58ZM29.53 11.58L29.53 11.58Q29.90 11.58 29.90 11.96L29.90 11.96L29.90 11.96Q29.90 12.33 29.53 12.33L29.53 12.33L24.05 12.33L24.05 12.33Q23.67 12.33 23.67 11.96L23.67 11.96L23.67 11.96Q23.67 11.75 23.79 11.66L23.79 11.66L28.78 5.43L24.05 5.43L24.05 5.43Q23.67 5.43 23.67 5.05L23.67 5.05L23.67 5.05Q23.67 4.68 24.05 4.68L24.05 4.68L29.53 4.68L29.53 4.68Q29.90 4.68 29.90 5.05L29.90 5.05L29.90 5.05Q29.90 5.22 29.85 5.29L29.85 5.29L24.84 11.58L29.53 11.58ZM40.36 4.68L40.36 4.68Q40.54 4.68 40.64 4.79L40.64 4.79L40.64 4.79Q40.74 4.90 40.74 5.07L40.74 5.07L40.74 5.07Q40.74 5.17 40.70 5.28L40.70 5.28L38.44 12.07L38.44 12.07Q38.40 12.19 38.30 12.26L38.30 12.26L38.30 12.26Q38.19 12.33 38.04 12.33L38.04 12.33L38.04 12.33Q37.90 12.33 37.79 12.26L37.79 12.26L37.79 12.26Q37.67 12.19 37.65 12.07L37.65 12.07L35.74 6.15L33.89 12.07L33.89 12.07Q33.80 12.33 33.50 12.33L33.50 12.33L33.50 12.33Q33.36 12.33 33.26 12.26L33.26 12.26L33.26 12.26Q33.15 12.19 33.11 12.07L33.11 12.07L30.84 5.28L30.84 5.28Q30.81 5.11 30.81 5.05L30.81 5.05L30.81 5.05Q30.81 4.68 31.16 4.68L31.16 4.68L31.16 4.68Q31.29 4.68 31.40 4.74L31.40 4.74L31.40 4.74Q31.50 4.80 31.56 4.93L31.56 4.93L33.53 10.89L35.35 5.01L35.35 5.01Q35.39 4.86 35.50 4.77L35.50 4.77L35.50 4.77Q35.62 4.68 35.77 4.68L35.77 4.68L35.77 4.68Q36.08 4.68 36.19 5.01L36.19 5.01L38.02 10.78L39.97 4.93L39.97 4.93Q40.08 4.68 40.36 4.68L40.36 4.68ZM42.56 5.10L42.56 5.10Q42.56 4.90 42.68 4.79L42.68 4.79L42.68 4.79Q42.80 4.68 42.98 4.68L42.98 4.68L42.98 4.68Q43.18 4.68 43.29 4.79L43.29 4.79L43.29 4.79Q43.40 4.90 43.40 5.10L43.40 5.10L43.40 11.91L43.40 11.91Q43.40 12.10 43.29 12.21L43.29 12.21L43.29 12.21Q43.18 12.33 42.98 12.33L42.98 12.33L42.98 12.33Q42.80 12.33 42.68 12.21L42.68 12.21L42.68 12.21Q42.56 12.10 42.56 11.91L42.56 11.91L42.56 5.10ZM42.98 1.76L42.98 1.76Q43.25 1.76 43.44 1.93L43.44 1.93L43.44 1.93Q43.62 2.10 43.62 2.41L43.62 2.41L43.62 2.41Q43.62 2.69 43.44 2.88L43.44 2.88L43.44 2.88Q43.25 3.07 42.97 3.07L42.97 3.07L42.97 3.07Q42.69 3.07 42.50 2.88L42.50 2.88L42.50 2.88Q42.32 2.69 42.32 2.41L42.32 2.41L42.32 2.41Q42.32 2.10 42.52 1.93L42.52 1.93L42.52 1.93Q42.71 1.76 42.98 1.76L42.98 1.76ZM49.63 2.16L49.63 2.16Q48.61 2.16 48.15 2.83L48.15 2.83L48.15 2.83Q47.68 3.51 47.68 4.66L47.68 4.66L47.68 4.96L49.53 4.96L49.53 4.96Q49.70 4.96 49.81 5.06L49.81 5.06L49.81 5.06Q49.91 5.17 49.91 5.33L49.91 5.33L49.91 5.33Q49.91 5.50 49.81 5.61L49.81 5.61L49.81 5.61Q49.70 5.71 49.53 5.71L49.53 5.71L47.68 5.71L47.68 11.91L47.68 11.91Q47.68 12.10 47.57 12.21L47.57 12.21L47.57 12.21Q47.45 12.33 47.25 12.33L47.25 12.33L47.25 12.33Q47.07 12.33 46.95 12.21L46.95 12.21L46.95 12.21Q46.83 12.10 46.83 11.91L46.83 11.91L46.83 5.71L45.74 5.71L45.74 5.71Q45.57 5.71 45.47 5.61L45.47 5.61L45.47 5.61Q45.36 5.50 45.36 5.33L45.36 5.33L45.36 5.33Q45.36 5.17 45.47 5.06L45.47 5.06L45.47 5.06Q45.57 4.96 45.74 4.96L45.74 4.96L46.83 4.96L46.83 4.66L46.83 4.66Q46.83 3.16 47.53 2.28L47.53 2.28L47.53 2.28Q48.23 1.40 49.63 1.40L49.63 1.40L49.63 1.40Q49.81 1.40 49.93 1.50L49.93 1.50L49.93 1.50Q50.05 1.61 50.05 1.78L50.05 1.78L50.05 1.78Q50.05 1.95 49.93 2.05L49.93 2.05L49.93 2.05Q49.81 2.16 49.63 2.16L49.63 2.16ZM51.59 5.10L51.59 5.10Q51.59 4.90 51.71 4.79L51.71 4.79L51.71 4.79Q51.83 4.68 52.01 4.68L52.01 4.68L52.01 4.68Q52.21 4.68 52.32 4.79L52.32 4.79L52.32 4.79Q52.43 4.90 52.43 5.10L52.43 5.10L52.43 11.91L52.43 11.91Q52.43 12.10 52.32 12.21L52.32 12.21L52.32 12.21Q52.21 12.33 52.01 12.33L52.01 12.33L52.01 12.33Q51.83 12.33 51.71 12.21L51.71 12.21L51.71 12.21Q51.59 12.10 51.59 11.91L51.59 11.91L51.59 5.10ZM52.01 1.76L52.01 1.76Q52.28 1.76 52.47 1.93L52.47 1.93L52.47 1.93Q52.65 2.10 52.65 2.41L52.65 2.41L52.65 2.41Q52.65 2.69 52.47 2.88L52.47 2.88L52.47 2.88Q52.28 3.07 52.00 3.07L52.00 3.07L52.00 3.07Q51.72 3.07 51.53 2.88L51.53 2.88L51.53 2.88Q51.35 2.69 51.35 2.41L51.35 2.41L51.35 2.41Q51.35 2.10 51.55 1.93L51.55 1.93L51.55 1.93Q51.74 1.76 52.01 1.76L52.01 1.76Z"></path></g><!----><!----></svg>